# xmcd CD database file
#
# Track frame offsets:
#	150
#	34973
#	71430
#	91327
#	124820
#	157410
#	196713
#	241303
#
# Disc length: 3765 seconds
#
# Revision: 0
# Processed by: cddbd v1.5.2PL0 Copyright (c) Steve Scherf et al.
# Submitted via: CDex 1.70beta2
#
DISCID=6a0eb308
DTITLE=Hiroshi Murakami - Vivo
DYEAR=2006
DGENRE=Jazz
TTITLE0=Jealous Frodo
TTITLE1=Blackthorn Blues
TTITLE2=Tammy Walk
TTITLE3=Ella's Chant
TTITLE4=Touch Wood
TTITLE5=Draggin'
TTITLE6=Outrunner
TTITLE7=Riena
EXTD=YEAR: 2006
EXTT0=
EXTT1=
EXTT2=
EXTT3=
EXTT4=
EXTT5=
EXTT6=
EXTT7=
PLAYORDER=
